<svg xmlns="http://www.w3.org/2000/svg" viewBox="0 0 825 1125"><rect width="825" height="1125" rx="44" fill="#F6CFE1"/><path d="M 121.92,206.8 Q 72.96000000000001,131.92000000000002 60.0,176.56 Q 111.84,160.72 152.64,202.48000000000002 Z" fill="#17766B" stroke="#14181B" stroke-width="4" stroke-linejoin="round"/><path d="M 214.07999999999998,206.8 Q 263.03999999999996,131.92000000000002 276.0,176.56 Q 224.16,160.72 183.36,202.48000000000002 Z" fill="#B03A57" stroke="#14181B" stroke-width="4" stroke-linejoin="round"/><path d="M 146.4,206.8 Q 159.36,104.56 168,106.0 Q 176.64,104.56 189.6,206.8 Z" fill="#E8791E" stroke="#14181B" stroke-width="4" stroke-linejoin="round"/><rect x="117.6" y="201.76000000000002" width="101" height="17" rx="8" fill="#C9A227" stroke="#14181B" stroke-width="3"/><circle cx="55.68000000000001" cy="185.2" r="8" fill="#C9A227" stroke="#14181B" stroke-width="2"/><circle cx="168.0" cy="100.24000000000001" r="8" fill="#C9A227" stroke="#14181B" stroke-width="2"/><circle cx="280.32" cy="185.2" r="8" fill="#C9A227" stroke="#14181B" stroke-width="2"/><g transform="rotate(180 412.5 562.5)"><path d="M 121.92,206.8 Q 72.96000000000001,131.92000000000002 60.0,176.56 Q 111.84,160.72 152.64,202.48000000000002 Z" fill="#17766B" stroke="#14181B" stroke-width="4" stroke-linejoin="round"/><path d="M 214.07999999999998,206.8 Q 263.03999999999996,131.92000000000002 276.0,176.56 Q 224.16,160.72 183.36,202.48000000000002 Z" fill="#B03A57" stroke="#14181B" stroke-width="4" stroke-linejoin="round"/><path d="M 146.4,206.8 Q 159.36,104.56 168,106.0 Q 176.64,104.56 189.6,206.8 Z" fill="#E8791E" stroke="#14181B" stroke-width="4" stroke-linejoin="round"/><rect x="117.6" y="201.76000000000002" width="101" height="17" rx="8" fill="#C9A227" stroke="#14181B" stroke-width="3"/><circle cx="55.68000000000001" cy="185.2" r="8" fill="#C9A227" stroke="#14181B" stroke-width="2"/><circle cx="168.0" cy="100.24000000000001" r="8" fill="#C9A227" stroke="#14181B" stroke-width="2"/><circle cx="280.32" cy="185.2" r="8" fill="#C9A227" stroke="#14181B" stroke-width="2"/></g><path d="M 281.3,552.0 Q 141.90000000000003,338.8 105.0,465.9 Q 252.60000000000002,420.8 368.76666666666665,539.7 Z" fill="#17766B" stroke="#14181B" stroke-width="10" stroke-linejoin="round"/><path d="M 543.7,552.0 Q 683.0999999999999,338.8 720.0,465.9 Q 572.4,420.8 456.23333333333335,539.7 Z" fill="#B03A57" stroke="#14181B" stroke-width="10" stroke-linejoin="round"/><path d="M 351.0,552.0 Q 387.9,260.9 412.5,265.0 Q 437.1,260.9 474.0,552.0 Z" fill="#E8791E" stroke="#14181B" stroke-width="10" stroke-linejoin="round"/><rect x="269.0" y="537.65" width="287" height="49" rx="23" fill="#C9A227" stroke="#14181B" stroke-width="8"/><circle cx="92.70000000000005" cy="490.5" r="23" fill="#C9A227" stroke="#14181B" stroke-width="6"/><circle cx="412.5" cy="248.60000000000002" r="23" fill="#C9A227" stroke="#14181B" stroke-width="6"/><circle cx="732.3" cy="490.5" r="23" fill="#C9A227" stroke="#14181B" stroke-width="6"/><g transform="translate(208.26 700) scale(0.92)"><path d="M68 8 L68 88 Q68 116 44 116 Q22 116 16 96" fill="none" stroke="#A34A08" stroke-width="23" stroke-linecap="round" stroke-linejoin="round"/></g><g transform="translate(287.38 700) scale(0.92)"><path d="M50 8 Q15 8 15 62 Q15 116 50 116 Q85 116 85 62 Q85 8 50 8" fill="none" stroke="#A34A08" stroke-width="23" stroke-linecap="round" stroke-linejoin="round"/></g><g transform="translate(366.5 700) scale(0.92)"><path d="M22 8 L22 116" fill="none" stroke="#A34A08" stroke-width="23" stroke-linecap="round" stroke-linejoin="round"/><path d="M82 8 L24 66" fill="none" stroke="#A34A08" stroke-width="23" stroke-linecap="round" stroke-linejoin="round"/><path d="M44 50 L86 116" fill="none" stroke="#A34A08" stroke-width="23" stroke-linecap="round" stroke-linejoin="round"/></g><g transform="translate(445.62 700) scale(0.92)"><path d="M24 8 L24 116" fill="none" stroke="#A34A08" stroke-width="23" stroke-linecap="round" stroke-linejoin="round"/><path d="M24 8 L86 8" fill="none" stroke="#A34A08" stroke-width="23" stroke-linecap="round" stroke-linejoin="round"/><path d="M24 62 L76 62" fill="none" stroke="#A34A08" stroke-width="23" stroke-linecap="round" stroke-linejoin="round"/><path d="M24 116 L86 116" fill="none" stroke="#A34A08" stroke-width="23" stroke-linecap="round" stroke-linejoin="round"/></g><g transform="translate(524.74 700) scale(0.92)"><path d="M24 116 L24 8 L58 8 Q86 8 86 35 Q86 62 58 62 L24 62" fill="none" stroke="#A34A08" stroke-width="23" stroke-linecap="round" stroke-linejoin="round"/><path d="M54 62 L88 116" fill="none" stroke="#A34A08" stroke-width="23" stroke-linecap="round" stroke-linejoin="round"/></g></svg>