<svg xmlns="http://www.w3.org/2000/svg" viewBox="0 0 825 1125"><rect width="825" height="1125" rx="44" fill="#F7F5EF"/><rect x="20" y="20" width="785" height="1085" rx="32" fill="none" stroke="#14181B" stroke-width="6"/><rect x="38" y="38" width="749" height="1049" rx="26" fill="none" stroke="#7C3AA0" stroke-width="5"/><text x="66" y="188" font-family="Georgia, 'Times New Roman', serif" font-size="150" font-weight="bold" fill="#7C3AA0">J</text><g transform="rotate(180 412.5 562.5)"><text x="66" y="188" font-family="Georgia, 'Times New Roman', serif" font-size="150" font-weight="bold" fill="#7C3AA0">J</text></g><g transform="rotate(-13 322 600)"><rect x="194" y="425" width="255" height="350" rx="23" fill="#1B5E43" stroke="#C9A227" stroke-width="9"/><rect x="212" y="443" width="219" height="314" rx="15" fill="none" stroke="#F7F5EF" stroke-width="3" opacity="0.35"/></g><g transform="rotate(13 502 600)"><rect x="374" y="425" width="255" height="350" rx="23" fill="#5B9BD5" stroke="#DCE9F5" stroke-width="9"/><rect x="392" y="443" width="219" height="314" rx="15" fill="none" stroke="#F7F5EF" stroke-width="3" opacity="0.35"/></g><g transform="rotate(-6 412.5 590)"><polygon points="642.5,564 780.5,494 726.5,588" fill="#C9A227" stroke="#14181B" stroke-width="7" stroke-linejoin="round"/><polygon points="642.5,612 788.5,652 710.5,696" fill="#C9A227" stroke="#14181B" stroke-width="7" stroke-linejoin="round"/><rect x="172.5" y="546" width="480" height="88" rx="40" fill="#C9A227" stroke="#14181B" stroke-width="7"/><path d="M 212.5,578 Q 412.5,560 612.5,578" fill="none" stroke="#8A6D1B" stroke-width="6" stroke-linecap="round"/><circle cx="660.5" cy="590" r="20" fill="#8A6D1B" stroke="#14181B" stroke-width="5"/></g><path d="M 152,462 A 295 295 0 0 1 673,462" fill="none" stroke="#7C3AA0" stroke-width="17" stroke-linecap="round"/><polygon points="673,462 628,428 671,406" fill="#7C3AA0"/><path d="M 673,738 A 295 295 0 0 1 152,738" fill="none" stroke="#7C3AA0" stroke-width="17" stroke-linecap="round"/><polygon points="152,738 197,772 154,794" fill="#7C3AA0"/></svg>