<svg xmlns="http://www.w3.org/2000/svg" viewBox="0 0 825 1125"><rect width="825" height="1125" rx="44" fill="#F7F5EF"/><rect x="20" y="20" width="785" height="1085" rx="32" fill="none" stroke="#14181B" stroke-width="6"/><rect x="38" y="38" width="749" height="1049" rx="26" fill="none" stroke="#C9A227" stroke-width="4"/><rect x="124" y="144" width="52" height="12" rx="6" fill="#C9A227"/><circle cx="128" cy="228" r="8" fill="#5B9BD5"/><circle cx="150" cy="228" r="8" fill="#5B9BD5"/><circle cx="172" cy="228" r="8" fill="#5B9BD5"/><polyline points="126,316 150,294 174,316" fill="none" stroke="#1B5E43" stroke-width="9" stroke-linecap="round" stroke-linejoin="round"/><path d="M 150,368 L 164,384 L 150,400 L 136,384 Z" fill="#E8791E"/><circle cx="150" cy="462" r="13" fill="none" stroke="#C9A227" stroke-width="7"/><path d="M 675,134 L 689,150 L 675,166 L 661,150 Z" fill="#5B9BD5"/><circle cx="675" cy="228" r="13" fill="none" stroke="#1B5E43" stroke-width="7"/><polygon points="675,289 680,301 692,306 680,311 675,323 670,311 658,306 670,301" fill="#E8791E"/><rect x="649" y="378" width="52" height="12" rx="6" fill="#C9A227"/><circle cx="653" cy="462" r="8" fill="#5B9BD5"/><circle cx="675" cy="462" r="8" fill="#5B9BD5"/><circle cx="697" cy="462" r="8" fill="#5B9BD5"/><rect x="230" y="144" width="52" height="12" rx="6" fill="#1B5E43"/><circle cx="312" cy="150" r="8" fill="#E8791E"/><circle cx="334" cy="150" r="8" fill="#E8791E"/><circle cx="356" cy="150" r="8" fill="#E8791E"/><polyline points="388,160 412,138 436,160" fill="none" stroke="#C9A227" stroke-width="9" stroke-linecap="round" stroke-linejoin="round"/><path d="M 490,134 L 504,150 L 490,166 L 476,150 Z" fill="#5B9BD5"/><circle cx="568" cy="150" r="13" fill="none" stroke="#1B5E43" stroke-width="7"/><g transform="rotate(180 412.5 562.5)"><rect x="124" y="144" width="52" height="12" rx="6" fill="#C9A227"/><circle cx="128" cy="228" r="8" fill="#5B9BD5"/><circle cx="150" cy="228" r="8" fill="#5B9BD5"/><circle cx="172" cy="228" r="8" fill="#5B9BD5"/><polyline points="126,316 150,294 174,316" fill="none" stroke="#1B5E43" stroke-width="9" stroke-linecap="round" stroke-linejoin="round"/><path d="M 150,368 L 164,384 L 150,400 L 136,384 Z" fill="#E8791E"/><circle cx="150" cy="462" r="13" fill="none" stroke="#C9A227" stroke-width="7"/><path d="M 675,134 L 689,150 L 675,166 L 661,150 Z" fill="#5B9BD5"/><circle cx="675" cy="228" r="13" fill="none" stroke="#1B5E43" stroke-width="7"/><polygon points="675,289 680,301 692,306 680,311 675,323 670,311 658,306 670,301" fill="#E8791E"/><rect x="649" y="378" width="52" height="12" rx="6" fill="#C9A227"/><circle cx="653" cy="462" r="8" fill="#5B9BD5"/><circle cx="675" cy="462" r="8" fill="#5B9BD5"/><circle cx="697" cy="462" r="8" fill="#5B9BD5"/><rect x="230" y="144" width="52" height="12" rx="6" fill="#1B5E43"/><circle cx="312" cy="150" r="8" fill="#E8791E"/><circle cx="334" cy="150" r="8" fill="#E8791E"/><circle cx="356" cy="150" r="8" fill="#E8791E"/><polyline points="388,160 412,138 436,160" fill="none" stroke="#C9A227" stroke-width="9" stroke-linecap="round" stroke-linejoin="round"/><path d="M 490,134 L 504,150 L 490,166 L 476,150 Z" fill="#5B9BD5"/><circle cx="568" cy="150" r="13" fill="none" stroke="#1B5E43" stroke-width="7"/></g><path d="M 412.5,262.5 L 652.5,562.5 L 412.5,862.5 L 172.5,562.5 Z" fill="none" stroke="#14181B" stroke-width="6"/><path d="M 412.5,310.5 L 612.5,562.5 L 412.5,814.5 L 212.5,562.5 Z" fill="none" stroke="#C9A227" stroke-width="8"/><path d="M 412.5,304.5 L 422.5,316.5 L 412.5,328.5 L 402.5,316.5 Z" fill="#C9A227"/><path d="M 412.5,796.5 L 422.5,808.5 L 412.5,820.5 L 402.5,808.5 Z" fill="#C9A227"/><path d="M 200.5,550.5 L 210.5,562.5 L 200.5,574.5 L 190.5,562.5 Z" fill="#C9A227"/><path d="M 624.5,550.5 L 634.5,562.5 L 624.5,574.5 L 614.5,562.5 Z" fill="#C9A227"/><path d="M 344.5,484.5 L 384.5,484.5 L 412.5,580.5 L 440.5,484.5 L 480.5,484.5 L 436.5,644.5 L 388.5,644.5 Z" fill="#E8791E" stroke="#C9A227" stroke-width="7" stroke-linejoin="round"/></svg>