<svg xmlns="http://www.w3.org/2000/svg" viewBox="0 0 825 1125"><rect width="825" height="1125" rx="44" fill="#DCEBF2"/><rect x="20" y="20" width="785" height="1085" rx="32" fill="none" stroke="#14181B" stroke-width="6"/><rect x="38" y="38" width="749" height="1049" rx="26" fill="none" stroke="#256D85" stroke-width="5"/><text x="66" y="188" font-family="Georgia, 'Times New Roman', serif" font-size="150" font-weight="bold" fill="#256D85">9</text><rect x="70" y="206" width="76" height="12" rx="6" fill="#256D85"/><g transform="rotate(180 412.5 562.5)"><text x="66" y="188" font-family="Georgia, 'Times New Roman', serif" font-size="150" font-weight="bold" fill="#256D85">9</text><rect x="70" y="206" width="76" height="12" rx="6" fill="#256D85"/></g><rect x="252" y="343" width="320" height="438" rx="29" fill="#5B9BD5" stroke="#DCE9F5" stroke-width="9"/><rect x="275" y="365" width="275" height="393" rx="19" fill="none" stroke="#F7F5EF" stroke-width="3" opacity="0.35"/><circle cx="412.5" cy="562" r="172" fill="#F7F5EF" opacity="0.25"/><circle cx="412.5" cy="562" r="172" fill="none" stroke="#256D85" stroke-width="24"/><path d="M 290.1,562 Q 412.5,484.24 534.9,562 Q 412.5,639.76 290.1,562 Z" fill="#FFFFFF" stroke="#14181B" stroke-width="12" stroke-linejoin="round"/><circle cx="412.5" cy="562" r="40" fill="#256D85"/><circle cx="412.5" cy="562" r="19" fill="#14181B"/><circle cx="424" cy="549" r="7" fill="#FFFFFF"/></svg>