<svg xmlns="http://www.w3.org/2000/svg" viewBox="0 0 825 1125"><rect width="825" height="1125" rx="44" fill="#F7F5EF"/><rect x="20" y="20" width="785" height="1085" rx="32" fill="none" stroke="#14181B" stroke-width="6"/><rect x="38" y="38" width="749" height="1049" rx="26" fill="none" stroke="#A8791B" stroke-width="5"/><text x="66" y="188" font-family="Georgia, 'Times New Roman', serif" font-size="150" font-weight="bold" fill="#A8791B">K</text><g transform="rotate(180 412.5 562.5)"><text x="66" y="188" font-family="Georgia, 'Times New Roman', serif" font-size="150" font-weight="bold" fill="#A8791B">K</text></g><rect x="140" y="290" width="545" height="600" rx="130" fill="#0E3428" stroke="#C9A227" stroke-width="8"/><rect x="162" y="312" width="501" height="556" rx="112" fill="none" stroke="#C9A227" stroke-width="3" opacity="0.4"/><g transform="translate(412.5 384) rotate(0.0)"><circle cx="0" cy="-66" r="27" fill="#14181B" stroke="#A8C2B5" stroke-width="4"/><path d="M -58,-2 Q -52,-48 0,-52 Q 52,-48 58,-2 Z" fill="#14181B" stroke="#A8C2B5" stroke-width="4"/><rect x="-91" y="14" width="54" height="74" rx="8" fill="#5B9BD5" stroke="#DCE9F5" stroke-width="4"/><rect x="-27" y="14" width="54" height="74" rx="8" fill="#5B9BD5" stroke="#DCE9F5" stroke-width="4"/><rect x="37" y="14" width="54" height="74" rx="8" fill="#5B9BD5" stroke="#DCE9F5" stroke-width="4"/></g><g transform="translate(224 590) rotate(90)"><circle cx="0" cy="-66" r="27" fill="#14181B" stroke="#A8C2B5" stroke-width="4"/><path d="M -58,-2 Q -52,-48 0,-52 Q 52,-48 58,-2 Z" fill="#14181B" stroke="#A8C2B5" stroke-width="4"/><rect x="-91" y="14" width="54" height="74" rx="8" fill="#5B9BD5" stroke="#DCE9F5" stroke-width="4"/><rect x="-27" y="14" width="54" height="74" rx="8" fill="#5B9BD5" stroke="#DCE9F5" stroke-width="4"/><rect x="37" y="14" width="54" height="74" rx="8" fill="#5B9BD5" stroke="#DCE9F5" stroke-width="4"/></g><g transform="translate(601 590) rotate(-90)"><circle cx="0" cy="-66" r="27" fill="#14181B" stroke="#A8C2B5" stroke-width="4"/><path d="M -58,-2 Q -52,-48 0,-52 Q 52,-48 58,-2 Z" fill="#14181B" stroke="#A8C2B5" stroke-width="4"/><rect x="-91" y="14" width="54" height="74" rx="8" fill="#5B9BD5" stroke="#DCE9F5" stroke-width="4"/><rect x="-27" y="14" width="54" height="74" rx="8" fill="#5B9BD5" stroke="#DCE9F5" stroke-width="4"/><rect x="37" y="14" width="54" height="74" rx="8" fill="#5B9BD5" stroke="#DCE9F5" stroke-width="4"/></g><rect x="246" y="772" width="100" height="138" rx="12" fill="#1B5E43" stroke="#C9A227" stroke-width="7"/><rect x="362" y="772" width="100" height="138" rx="12" fill="#1B5E43" stroke="#C9A227" stroke-width="7"/><rect x="478" y="772" width="100" height="138" rx="12" fill="#1B5E43" stroke="#C9A227" stroke-width="7"/><line x1="412.5" y1="552" x2="412.5" y2="476" stroke="#C9A227" stroke-width="9" stroke-linecap="round" stroke-dasharray="16 14"/><polygon points="412,476 427,506 398,506" fill="#C9A227"/><line x1="316.5" y1="606" x2="314" y2="600" stroke="#C9A227" stroke-width="9" stroke-linecap="round" stroke-dasharray="16 14"/><polygon points="314,600 339,622 312,634" fill="#C9A227"/><line x1="508.5" y1="606" x2="510" y2="600" stroke="#C9A227" stroke-width="9" stroke-linecap="round" stroke-dasharray="16 14"/><polygon points="510,600 517,633 488,626" fill="#C9A227"/><line x1="412.5" y1="662" x2="412.5" y2="750" stroke="#C9A227" stroke-width="9" stroke-linecap="round" stroke-dasharray="16 14"/><polygon points="412,750 398,720 427,720" fill="#C9A227"/><path d="M 331.9,557.76 L 331.9,511.3344 L 372.2,531.5712 L 412.5,491.0976 L 452.8,531.5712 L 493.1,511.3344 L 493.1,557.76 Z" fill="none" stroke="#C9A227" stroke-width="8" stroke-linejoin="round"/><line x1="331.9" y1="572.0448" x2="493.1" y2="572.0448" stroke="#C9A227" stroke-width="8" stroke-linecap="round"/><circle cx="332" cy="503" r="7" fill="none" stroke="#C9A227" stroke-width="4"/><circle cx="412" cy="482" r="7" fill="none" stroke="#C9A227" stroke-width="4"/><circle cx="493" cy="503" r="7" fill="none" stroke="#C9A227" stroke-width="4"/><path d="M 327.5,606 Q 412.5,552.0 497.5,606 Q 412.5,660.0 327.5,606 Z" fill="#FFFFFF" stroke="#14181B" stroke-width="8" stroke-linejoin="round"/><circle cx="412.5" cy="606" r="28" fill="#C9A227"/><circle cx="412.5" cy="606" r="14" fill="#14181B"/><circle cx="420" cy="597" r="5" fill="#FFFFFF"/></svg>