<svg xmlns="http://www.w3.org/2000/svg" viewBox="0 0 825 1125"><rect width="825" height="1125" rx="44" fill="#FFFFFF"/><rect x="26" y="26" width="773" height="1073" rx="30" fill="none" stroke="#14181B" stroke-width="6"/><g transform="translate(66 62) scale(1.55)"><path d="M14 34 Q14 8 50 8 Q86 8 86 36 Q86 60 50 88 L14 116 L88 116" fill="none" stroke="#17766B" stroke-width="23" stroke-linecap="round" stroke-linejoin="round"/></g><g transform="rotate(180 412.5 562.5)"><g transform="translate(66 62) scale(1.55)"><path d="M14 34 Q14 8 50 8 Q86 8 86 36 Q86 60 50 88 L14 116 L88 116" fill="none" stroke="#17766B" stroke-width="23" stroke-linecap="round" stroke-linejoin="round"/></g></g><rect x="362" y="331" width="100" height="138" rx="12" fill="#17766B" stroke="#C9A227" stroke-width="5"/><rect x="362" y="711" width="100" height="138" rx="12" fill="#17766B" stroke="#C9A227" stroke-width="5"/></svg>