<svg xmlns="http://www.w3.org/2000/svg" viewBox="0 0 825 1125"><rect width="825" height="1125" rx="44" fill="#F7F5EF"/><rect x="20" y="20" width="785" height="1085" rx="32" fill="none" stroke="#14181B" stroke-width="6"/><text x="66" y="188" font-family="Georgia, 'Times New Roman', serif" font-size="150" font-weight="bold" fill="#14181B">K</text><g transform="rotate(180 412.5 562.5)"><text x="66" y="188" font-family="Georgia, 'Times New Roman', serif" font-size="150" font-weight="bold" fill="#14181B">K</text></g><path d="M 256.5,377.6 L 256.5,287.744 L 334.5,326.912 L 412.5,248.57600000000002 L 490.5,326.912 L 568.5,287.744 L 568.5,377.6 Z" fill="none" stroke="#C9A227" stroke-width="16" stroke-linejoin="round"/><line x1="256.5" y1="405.248" x2="568.5" y2="405.248" stroke="#C9A227" stroke-width="16" stroke-linecap="round"/><circle cx="256" cy="272" r="13" fill="none" stroke="#C9A227" stroke-width="8"/><circle cx="412" cy="230" r="13" fill="none" stroke="#C9A227" stroke-width="8"/><circle cx="568" cy="272" r="13" fill="none" stroke="#C9A227" stroke-width="8"/><polygon points="382.5,408 442.5,408 486.5,628 338.5,628" fill="#C9A227" opacity="0.18"/><g transform="rotate(-12 226 790)"><rect x="147" y="680" width="158" height="220" rx="10" fill="#FFFFFF" stroke="#14181B" stroke-width="5" opacity="1.0"/></g><rect x="333" y="648" width="158" height="220" rx="10" fill="#FFFFFF" stroke="#14181B" stroke-width="5" opacity="1.0"/><g transform="rotate(12 598 790)"><rect x="519" y="680" width="158" height="220" rx="10" fill="#FFFFFF" stroke="#14181B" stroke-width="5" opacity="1.0"/></g><g transform="rotate(-12 226 790)"><rect x="198" y="792" width="56" height="76" rx="10" fill="#1B5E43" stroke="#C9A227" stroke-width="4" opacity="1.0"/><path d="M 189.92000000000002,746 Q 226,723.12 262.08,746 Q 226,768.88 189.92000000000002,746 Z" fill="#FFFFFF" stroke="#14181B" stroke-width="4" stroke-linejoin="round"/><circle cx="226" cy="746" r="11" fill="#C9A227"/><circle cx="226" cy="746" r="5" fill="#14181B"/></g><g transform="rotate(0 412 758)"><rect x="353" y="768" width="50" height="68" rx="10" fill="#1B5E43" stroke="#C9A227" stroke-width="4" opacity="1.0"/><rect x="421" y="680" width="50" height="68" rx="10" fill="#0E3428" stroke="#14181B" stroke-width="4" opacity="1.0"/><line x1="382" y1="734" x2="404" y2="734" stroke="#C9A227" stroke-width="8" stroke-linecap="round"/><polygon points="438,734 391,755 391,713" fill="#C9A227"/><line x1="442" y1="782" x2="420" y2="782" stroke="#C9A227" stroke-width="8" stroke-linecap="round"/><polygon points="386,782 433,761 433,803" fill="#C9A227"/></g><g transform="rotate(12 598 790)"><g transform="rotate(8 578 822)"><rect x="550" y="784" width="56" height="76" rx="10" fill="#1B5E43" stroke="#C9A227" stroke-width="4" opacity="1.0"/></g><line x1="594" y1="786" x2="620" y2="759" stroke="#C9A227" stroke-width="9" stroke-linecap="round"/><polygon points="644,734 627,782 597,753" fill="#C9A227"/></g></svg>