<svg xmlns="http://www.w3.org/2000/svg" viewBox="0 0 825 1125"><rect width="825" height="1125" rx="44" fill="#F7F5EF"/><rect x="20" y="20" width="785" height="1085" rx="32" fill="none" stroke="#14181B" stroke-width="6"/><text x="66" y="188" font-family="Georgia, 'Times New Roman', serif" font-size="150" font-weight="bold" fill="#14181B">A</text><g transform="rotate(180 412.5 562.5)"><text x="66" y="188" font-family="Georgia, 'Times New Roman', serif" font-size="150" font-weight="bold" fill="#14181B">A</text></g><g transform="rotate(8 520 770)"><rect x="375" y="570" width="290" height="400" rx="26" fill="#0E3428" stroke="#14181B" stroke-width="10"/><rect x="397" y="592" width="246" height="356" rx="16" fill="none" stroke="#F7F5EF" stroke-width="4" opacity="0.35"/></g><g transform="translate(300 400) rotate(38)"><path d="M -34,-150 L 34,-150 L 34,-58 L 96,86 Q 112,126 74,126 L -74,126 Q -112,126 -96,86 L -34,-58 Z" fill="#FFFFFF" stroke="#14181B" stroke-width="10" stroke-linejoin="round"/><path d="M -70,56 L 70,56 L 96,86 Q 112,126 74,126 L -74,126 Q -112,126 -96,86 Z" fill="#E8791E" stroke="#14181B" stroke-width="6"/><rect x="-44" y="-186" width="88" height="40" rx="12" fill="#C9A227" stroke="#14181B" stroke-width="7"/></g><path d="M 432,428.9 Q 461.9,472.6 432,497.9 Q 402.1,472.6 432,428.9 Z" fill="#E8791E" stroke="#14181B" stroke-width="6"/><path d="M 478,521.4 Q 501.4,555.6 478,575.4 Q 454.6,555.6 478,521.4 Z" fill="#E8791E" stroke="#14181B" stroke-width="4"/><path d="M 510,604.2 Q 528.2,630.8 510,646.2 Q 491.8,630.8 510,604.2 Z" fill="#E8791E" stroke="#14181B" stroke-width="4"/></svg>