<svg xmlns="http://www.w3.org/2000/svg" viewBox="0 0 825 1125"><rect width="825" height="1125" rx="44" fill="#CCFCDE"/><g transform="translate(66 62) scale(1.55)"><path d="M12 8 L88 8 L44 116" fill="none" stroke="#1B7A3E" stroke-width="23" stroke-linecap="round" stroke-linejoin="round"/></g><g transform="rotate(180 412.5 562.5)"><g transform="translate(66 62) scale(1.55)"><path d="M12 8 L88 8 L44 116" fill="none" stroke="#1B7A3E" stroke-width="23" stroke-linecap="round" stroke-linejoin="round"/></g></g><rect x="180" y="638" width="140" height="192" rx="13" fill="#1B5E43" stroke="#14181B" stroke-width="9"/><rect x="192" y="649" width="118" height="170" rx="8" fill="none" stroke="#C9A227" stroke-width="4"/><rect x="504" y="638" width="140" height="192" rx="13" fill="#1B5E43" stroke="#14181B" stroke-width="9"/><rect x="516" y="649" width="118" height="170" rx="8" fill="none" stroke="#C9A227" stroke-width="4"/><rect x="300" y="466" width="226" height="300" rx="22" fill="#1B7A3E" opacity="0.45"/><rect x="312" y="479" width="200" height="274" rx="18" fill="#1B5E43" stroke="#14181B" stroke-width="10"/><rect x="328" y="495" width="168" height="242" rx="12" fill="none" stroke="#C9A227" stroke-width="5"/><path d="M 217.00000000000003,340 Q 412.5,215.8 608.0,340 Q 412.5,464.2 217.00000000000003,340 Z" fill="#FFFFFF" stroke="#14181B" stroke-width="18" stroke-linejoin="round"/><circle cx="412.5" cy="358" r="64" fill="#1B7A3E"/><circle cx="412.5" cy="358" r="31" fill="#14181B"/><circle cx="431" cy="338" r="12" fill="#FFFFFF"/></svg>