<svg xmlns="http://www.w3.org/2000/svg" viewBox="0 0 825 1125"><rect width="825" height="1125" rx="44" fill="#FCEDB8"/><g transform="translate(66 62) scale(1.55)"><path d="M22 8 L22 116" fill="none" stroke="#7A641B" stroke-width="23" stroke-linecap="round" stroke-linejoin="round"/><path d="M82 8 L24 66" fill="none" stroke="#7A641B" stroke-width="23" stroke-linecap="round" stroke-linejoin="round"/><path d="M44 50 L86 116" fill="none" stroke="#7A641B" stroke-width="23" stroke-linecap="round" stroke-linejoin="round"/></g><g transform="rotate(180 412.5 562.5)"><g transform="translate(66 62) scale(1.55)"><path d="M22 8 L22 116" fill="none" stroke="#7A641B" stroke-width="23" stroke-linecap="round" stroke-linejoin="round"/><path d="M82 8 L24 66" fill="none" stroke="#7A641B" stroke-width="23" stroke-linecap="round" stroke-linejoin="round"/><path d="M44 50 L86 116" fill="none" stroke="#7A641B" stroke-width="23" stroke-linecap="round" stroke-linejoin="round"/></g></g><line x1="330" y1="470" x2="319" y2="459" stroke="#7A641B" stroke-width="9" stroke-linecap="round"/><line x1="309" y1="449" x2="297" y2="437" stroke="#7A641B" stroke-width="9" stroke-linecap="round"/><polygon points="288,428 320,439 299,460" fill="#7A641B"/><line x1="495" y1="470" x2="506" y2="459" stroke="#7A641B" stroke-width="9" stroke-linecap="round"/><line x1="516" y1="449" x2="528" y2="437" stroke="#7A641B" stroke-width="9" stroke-linecap="round"/><polygon points="537,428 526,460 505,439" fill="#7A641B"/><line x1="330" y1="655" x2="319" y2="666" stroke="#7A641B" stroke-width="9" stroke-linecap="round"/><line x1="309" y1="676" x2="297" y2="688" stroke="#7A641B" stroke-width="9" stroke-linecap="round"/><polygon points="288,697 299,665 320,686" fill="#7A641B"/><line x1="495" y1="655" x2="506" y2="666" stroke="#7A641B" stroke-width="9" stroke-linecap="round"/><line x1="516" y1="676" x2="528" y2="688" stroke="#7A641B" stroke-width="9" stroke-linecap="round"/><polygon points="537,697 505,686 526,665" fill="#7A641B"/><path d="M 217.5,602.0 L 217.5,489.68 L 315.0,538.64 L 412.5,440.72 L 510.0,538.64 L 607.5,489.68 L 607.5,602.0 Z" fill="none" stroke="#7A641B" stroke-width="20" stroke-linejoin="round"/><line x1="217.5" y1="636.56" x2="607.5" y2="636.56" stroke="#7A641B" stroke-width="20" stroke-linecap="round"/><circle cx="218" cy="470" r="16" fill="none" stroke="#7A641B" stroke-width="10"/><circle cx="412" cy="418" r="16" fill="none" stroke="#7A641B" stroke-width="10"/><circle cx="608" cy="470" r="16" fill="none" stroke="#7A641B" stroke-width="10"/><g transform="rotate(-8 238 382)"><rect x="179" y="301" width="118" height="162" rx="11" fill="#1B5E43" stroke="#14181B" stroke-width="9"/><rect x="188" y="310" width="99" height="143" rx="7" fill="none" stroke="#C9A227" stroke-width="4"/></g><g transform="rotate(8 587 382)"><rect x="528" y="301" width="118" height="162" rx="11" fill="#5B9BD5" stroke="#14181B" stroke-width="9"/><rect x="537" y="310" width="99" height="143" rx="7" fill="none" stroke="#DCE9F5" stroke-width="4"/></g><g transform="rotate(8 238 743)"><rect x="179" y="662" width="118" height="162" rx="11" fill="#5B9BD5" stroke="#14181B" stroke-width="9"/><rect x="188" y="671" width="99" height="143" rx="7" fill="none" stroke="#DCE9F5" stroke-width="4"/></g><g transform="rotate(-8 587 743)"><rect x="528" y="662" width="118" height="162" rx="11" fill="#1B5E43" stroke="#14181B" stroke-width="9"/><rect x="537" y="671" width="99" height="143" rx="7" fill="none" stroke="#C9A227" stroke-width="4"/></g></svg>