<svg xmlns="http://www.w3.org/2000/svg" viewBox="0 0 825 1125"><rect width="825" height="1125" rx="44" fill="#F7F5EF"/><rect x="20" y="20" width="785" height="1085" rx="32" fill="none" stroke="#14181B" stroke-width="6"/><rect x="38" y="38" width="749" height="1049" rx="26" fill="none" stroke="#256D85" stroke-width="5"/><text x="66" y="188" font-family="Georgia, 'Times New Roman', serif" font-size="150" font-weight="bold" fill="#256D85">9</text><rect x="70" y="206" width="76" height="12" rx="6" fill="#256D85"/><g transform="rotate(180 412.5 562.5)"><text x="66" y="188" font-family="Georgia, 'Times New Roman', serif" font-size="150" font-weight="bold" fill="#256D85">9</text><rect x="70" y="206" width="76" height="12" rx="6" fill="#256D85"/></g><circle cx="560" cy="248" r="42" fill="#14181B" stroke="#A8C2B5" stroke-width="6"/><path d="M 470,342 Q 480,272 560,265 Q 640,272 650,342 Z" fill="#14181B" stroke="#A8C2B5" stroke-width="6"/><g transform="rotate(-6 380 650)"><rect x="235" y="450" width="290" height="400" rx="26" fill="#5B9BD5" stroke="#DCE9F5" stroke-width="9"/><rect x="255" y="470" width="249" height="359" rx="17" fill="none" stroke="#F7F5EF" stroke-width="3" opacity="0.35"/></g><line x1="569" y1="676" x2="689" y2="848" stroke="#256D85" stroke-width="34" stroke-linecap="round"/><circle cx="460" cy="520" r="190" fill="#F7F5EF" opacity="0.2"/><circle cx="460" cy="520" r="190" fill="none" stroke="#256D85" stroke-width="22"/><path d="M 324.0,520 Q 460,433.6 596.0,520 Q 460,606.4 324.0,520 Z" fill="#FFFFFF" stroke="#14181B" stroke-width="13" stroke-linejoin="round"/><circle cx="460" cy="520" r="45" fill="#256D85"/><circle cx="460" cy="520" r="22" fill="#14181B"/><circle cx="473" cy="506" r="8" fill="#FFFFFF"/></svg>