<svg xmlns="http://www.w3.org/2000/svg" viewBox="0.004608407616615295 0.7240509986877441 298.9765625 337.2176513671875" fill="#548C2F" style="box-shadow: none; border-radius: 0px; opacity: 1;" preserveAspectRatio="xMidYMid meet" fill-opacity="1" width="299" height="338">
<path d="M87.1331 0.724051C77.4197 6.93562 69.4055 12.0662 61.2845 19.6569C57.246 23.4261 53.5125 27.0141 49.9788 31.2986C42.8715 39.9681 35.5302 49.2544 29.7475 58.8354C24.2133 68.0266 19.8973 78.0753 15.4281 87.807C10.4407 98.6941 7.61656 110.082 5.21463 121.754C3.04599 132.344 1.68784 143.734 1.05565 154.528C0.809004 158.713 0.210872 162.816 0.0445907 167.033C-0.162057 172.433 0.476457 177.669 0.948506 183.06C1.96622 194.709 3.84678 206.003 6.09512 217.456C8.64501 230.46 8.91961 244.677 13.7517 257.065C17.3239 266.216 21.4806 275.565 26.8605 283.772C32.8141 292.847 39.611 300.594 48.1135 307.507C55.7455 313.712 65.4117 318.725 74.7796 321.653C79.8001 323.221 85.0855 326.025 90.2731 326.589C95.9447 327.195 101.038 327.5 106.61 329.114C112.587 330.854 117.869 331.445 124.062 331.676C129.319 331.861 133.62 333.923 138.644 335.19C143.33 336.37 147.959 336.758 152.749 337.094C158.392 337.479 163.522 338.335 169.174 337.734C173.709 337.247 178.122 336.63 182.613 335.846C187.27 335.024 191.518 332.979 196.157 331.882C204.864 329.833 213.848 328.347 222.485 326.095C227.429 324.816 232.58 321.967 237.322 320.026C241.664 318.24 246.116 316.94 250.362 314.93C253.996 313.2 257.989 312.497 261.53 310.473C265.687 308.101 269.46 305.262 273.865 303.35C280.924 300.295 286.963 295.798 293.083 291.216C295.725 289.231 299.009 287.268 298.981 283.567C285.71 287.314 269.929 284.766 256.284 283.546C247.241 282.726 237.989 282.429 229.025 281.059C222.214 280.011 215.743 276.037 209.872 272.57C206.897 270.803 203.858 270.047 200.689 268.68C196.986 267.077 193.563 265.004 189.974 263.202C182.569 259.497 176.236 254.414 169.361 249.814C166.037 247.582 162.663 245.854 159.558 243.245C155.839 240.134 152.375 236.73 148.64 233.659C141.613 227.892 133.531 224.045 128.126 216.632C123.75 210.64 118.871 205.031 114.453 199.058C109.285 192.042 104.435 184.989 99.6171 177.739C95.0122 170.831 90.2228 164.035 85.638 157.134C80.8137 149.87 77.8413 141.61 75.8666 133.153C73.9283 124.897 74.0255 116.148 73.1212 107.78C72.1783 99.1284 72.8412 90.0692 73.1614 81.3739C73.418 74.504 73.1025 67.6972 73.3692 60.8896C73.586 55.5519 73.6732 50.8028 75.1674 45.6479C77.6943 36.9352 78.5213 27.5223 82.3021 19.4021C83.6451 16.5265 84.1141 13.2447 85.0351 10.2011C85.8783 7.4408 86.7874 4.48563 87.5906 1.82577" fill="" style="undefined" fill-opacity=""/>
</svg>