<svg width="331" height="307" viewBox="0 0 331 307" fill="none" xmlns="http://www.w3.org/2000/svg">
<path d="M217.571 89.82C217.571 90.7459 217.571 90.8103 217.571 90.0132C217.466 76.583 214.315 64.111 211.714 51.0753C208.085 32.9349 206.173 14.8267 188.423 5.12442C179.415 0.204846 169.588 0.0277093 159.502 0.0196576C150.405 0.0196576 143.316 -0.560063 135.515 4.57691C128.467 9.21467 123.307 16.6383 117.765 22.9589C103.021 39.7547 110.58 66.6553 119.224 87.5494C103.977 79.9647 93.1865 72.7665 76.96 70.7939C67.7085 69.6666 58.6757 69.3526 49.3594 69.3607C37.9854 69.3768 31.383 69.9968 23.1523 78.3947C10.0528 91.7685 -4.54548 117.944 1.34404 137.277C6.37484 153.799 24.6834 172.962 40.5616 179.677C49.2217 183.34 58.5704 182.962 67.7814 183.026C72.8446 183.058 80.4353 182.93 84.4535 179.508C70.1388 191.513 57.7765 210.965 55.4434 229.637C53.8799 242.117 55.7674 253.921 60.2959 265.54C64.4356 276.16 71.6456 292.497 81.1239 299.598C87.775 304.59 100.016 306.748 108.052 306.958C120.487 307.288 132.323 305.798 143.049 298.745C153.556 291.836 158.49 277.81 164.404 267.214C169.199 258.623 170.803 248.985 175.267 240.274C178.321 244.38 182.194 248.164 185.564 252.126C190.198 257.561 194.872 263.784 200.437 268.35C208.385 274.88 216.089 279.807 226.677 280.846C237.978 281.957 247.238 279.711 257.607 275.685C282.558 265.991 300.308 234.653 289.08 209.089C286.358 202.882 280.161 180.876 271.711 179.604C279.861 180.997 292.369 174.797 298.785 170.337C309.632 162.8 316.81 151.021 322.748 139.587C328.338 128.814 331.732 119.031 330.865 106.624C330.08 95.3676 326.215 76.9937 316.851 69.5137C309.705 63.805 293.77 60.3831 284.802 60.2462C272.221 60.0529 256.878 58.7486 244.985 63.6279C237.824 66.5667 233.773 72.8471 229.083 78.4591C225.219 83.0888 220.147 87.4689 217.782 92.8313C218.462 92.4207 218.778 91.7926 218.73 90.9633" fill="#5D2689"/>
</svg>
