<svg width="287" height="293" viewBox="0 0 287 293" fill="none" xmlns="http://www.w3.org/2000/svg">
<path d="M227.367 270.566C239.129 258.027 251.6 246.042 261.796 232.397C265.407 227.563 269.707 222.802 272.118 217.248C275.76 208.865 278.004 200.127 280.707 191.367C285.998 174.204 287 155.13 287 137.257C287 118.872 286.155 101.051 281.667 83.1876C277.513 66.6819 270.344 52.452 258.321 40.3416C252.831 34.8083 247.425 29.3273 240.642 25.4228C232.992 21.0275 224.872 18.2191 217.118 14.2414C209.562 10.3682 201.923 8.78128 193.824 6.80811C183.377 4.26074 172.19 0.888594 161.398 0.20999C151.599 -0.405973 141.789 0.38751 132.145 1.88044C121.615 3.50909 110.083 3.13321 99.9386 6.73503C78.3562 14.398 61.3241 30.2461 45.44 45.9792C37.1848 54.1642 30.5473 63.0383 24.0037 72.7266C17.794 81.9139 14.6528 90.6836 10.3008 100.675C2.4005 118.82 0.0104521 141.422 1.57228e-05 161.311C-0.0104206 182.525 5.17653 201.442 9.99813 221.873C13.9744 238.724 25.1204 252.369 35.3898 265.68C44.2294 277.153 53.1003 283.939 67.0954 287.353C77.4796 289.88 89.0535 294.087 99.7091 292.74C108.622 291.613 118.077 292.866 126.739 289.942C132.302 288.063 136.936 284.002 141.903 280.807C146.944 277.561 152.277 275.222 157.485 272.236C165.834 267.455 173.755 260.971 180.059 253.799C193.438 238.567 207.632 224.734 215.031 205.305C218.767 195.491 223.735 187.233 224.789 176.449C225.384 170.352 226.438 164.756 226.448 158.492C226.459 152.499 225.54 146.83 224.559 140.984C222.806 130.544 222.19 120.542 218.997 110.248C215.866 100.184 207.788 92.4792 201.495 84.0959C194.628 74.94 185.214 71.2337 174.287 69.2605C163.924 67.3813 146.777 66.1912 136.894 69.9392C127.47 73.5097 118.589 77.028 109.968 82.5194C105.595 85.3069 101.254 88.3763 96.9226 90.861C92.0071 93.6798 86.6323 96.3212 82.2491 99.9752C71.9066 108.599 66.177 120.135 61.3136 132.392C59.2786 137.528 56.7217 141.902 55.2606 147.279C53.7056 153 54.1022 158.596 54.0709 164.547C54.0083 175.686 57.7863 187.191 59.8736 198.08C61.9295 208.823 69.9341 214.931 77.3961 221.905C80.4853 224.797 84.1797 227.459 87.415 230.445C90.8277 233.597 92.2784 235.967 96.9434 237.69C104.353 240.446 114.894 242.43 123.034 240.738C130.757 239.131 137.207 230.883 142.832 225.11C148.781 219.002 153.707 211.705 156.347 203.457C158.455 196.859 161.753 184.863 158.466 178.244C156.744 174.768 154.97 174.538 150.983 174.559C147.81 174.58 142.122 173.484 139.545 175.217C137.05 176.898 136.247 182.222 135.13 184.811C133.293 189.091 132.897 191.555 132.385 196.045C131.624 202.684 126.426 207.946 119.288 209.095C112.671 210.16 103.383 209.491 98.7386 204.386C93.4682 198.582 88.4691 189.342 85.7452 182.013C82.9691 174.549 82.9378 165.351 85.4843 157.782C88.1665 149.816 89.3562 141.61 95.0649 135.179C100.346 129.218 106.347 124.436 112.066 118.893C117.816 113.307 123.619 108.244 131.404 106.312C138.084 104.663 147.351 104.903 153.769 106.719C161.701 108.964 169.33 109.549 176.176 114.727C188.47 124.008 192.895 140.994 192.895 155.923C192.895 163.43 193.97 172.053 192.196 179.226C190.245 187.077 186.988 195.262 183.586 202.58C176.458 217.896 166.878 230.747 153.999 241.689C150.618 244.56 147.894 248.161 144.45 251.053C140.901 254.039 136.622 255.783 132.594 257.766C128.326 259.865 124.871 263.675 120.248 265.262C115.979 266.734 111.711 266.849 107.171 266.849C102.631 266.849 98.5089 267.559 94.1048 267.778C90.2746 267.966 86.4967 266.724 82.9483 265.941C79.2747 265.126 75.1837 265.158 71.7188 263.383C68.2435 261.598 64.9664 258.57 61.7207 256.399C58.4332 254.196 54.7806 252.066 51.2636 249.874C47.0994 247.274 45.7114 244.267 44.0624 239.83C40.6602 230.674 38.4581 221.383 35.6716 212.07C34.4296 207.915 32.9999 203.802 31.9145 199.511C30.7248 194.781 31.3717 190.543 30.7977 185.803C30.182 180.708 28.8566 176.073 28.8879 170.821C28.9088 166.092 28.8879 161.363 28.8879 156.623C28.8879 151.434 29.2637 146.726 29.8481 141.704C30.4952 136.035 30.3595 129.98 31.664 124.436C33.6469 116.032 36.2142 104.402 41.015 97.1981C52.8916 79.377 72.7624 67.4962 89.4397 54.3626C97.9975 47.6288 109.77 43.839 119.956 40.1015C128.9 36.8233 136.842 34.8083 146.307 34.7353C150.211 34.7039 153.55 35.6853 157.485 35.6644C161.482 35.654 165.604 35.3826 169.601 35.6644C178.994 36.3222 189.535 38.0865 198.479 41.2603C211.931 46.0314 227.92 55.6258 234.589 68.3418C238.627 76.0466 243.856 82.1018 245.975 90.6627C248.01 98.9207 250.379 106.25 250.661 114.915C251.182 130.888 251.61 146.632 249.774 162.428C247.864 178.85 240.944 195.888 233.649 210.901C229.381 219.702 225.582 228.252 219.696 236.072C214.53 242.931 208.748 250.49 208.717 259.374C208.696 266.797 214.958 271.495 221.762 271.495C226.052 271.495 228.838 271.14 231.781 267.58C233.712 265.252 235.246 261.984 236.676 259.374" fill="#FEEE00"/>
</svg>
