<svg xmlns="http://www.w3.org/2000/svg" viewBox="-0.00000286102294921875 9.5367431640625e-7 325.1956787109375 414.9082946777344" fill="#00728F" style="box-shadow: none; border-radius: 0px; opacity: 1;" preserveAspectRatio="xMidYMid meet" fill-opacity="1" width="326" height="415">
<path d="M54.3632 244.244C66.7112 254.343 79.5603 263.736 92.9105 272.435C96.3798 268.631 106.145 270.443 111.529 269.865C118.968 269.055 125.47 267.95 132.884 267.141C149.023 265.368 159.79 271.265 168.296 285.322C175.337 296.951 182.79 312.19 182.829 326.028C182.88 343.619 173.564 358.357 164.454 372.889C153.571 390.235 128.862 402.545 110.103 408.173C95.7245 412.49 69.3066 418.837 54.9156 411.667C46.3581 407.402 38.1348 396.287 31.0421 389.811C24.5276 383.862 14.2739 376.834 9.64826 369.201C-0.0913587 353.101 -1.50467 325.296 1.23219 307.384C3.82771 290.436 5.0997 264.391 18.8225 252.313C28.0097 244.218 51.4335 236.765 61.5201 247.225" fill="" style="undefined" fill-opacity=""/>
<path d="M84.6228 271.548C97.4205 243.832 114.78 210.283 119.136 179.497C121.962 159.452 126.922 139.575 129.929 119.183C132.421 102.261 132.537 87.5101 133.205 71.1018C133.539 63.0198 136.687 54.9634 136.765 46.8684C136.842 38.9148 134.94 32.5288 141.66 26.6311C157.117 31.3981 151.014 57.4047 152.402 70.1124C154.291 87.5101 154.702 106.784 152.029 124.336C149.37 141.849 146.98 159.337 142.315 176.233C137.651 193.13 135.261 212.725 127.179 228.388C123.414 235.686 118.506 242.188 115.512 249.422C113.096 255.242 109.203 268.516 101.969 270.289" fill="" style="undefined" fill-opacity=""/>
<path d="M154.419 95.1679C163.748 80.7127 171.046 63.9702 184.653 54.4619C188.264 51.9435 191.862 50.0547 195.716 47.9217C203.451 43.643 210.339 39.3257 218.472 36.0363C231.63 30.7168 244.466 22.4933 257.495 16.0688C268.506 10.6464 280.662 7.27999 292.599 4.04201C300.244 1.97331 316.279 -3.4362 322.807 3.20679C327.908 8.41068 323.59 25.9754 321.355 32.1301C317.41 43.0133 305.936 52.5731 297.828 60.0641C286.444 70.5875 277.976 80.6741 264.022 88.435C249.297 96.6327 235.446 105.396 219.963 112.411C205.88 118.797 194.29 120.159 180.194 114.133C174.579 111.73 150.783 110.484 149.035 105.781" fill="" style="undefined" fill-opacity=""/>
</svg>