<svg width="371" height="514" viewBox="0 0 371 514" fill="none" xmlns="http://www.w3.org/2000/svg">
<path d="M26.1063 358.121C34.3023 343.242 42.1659 327.493 51.7311 313.359C55.9269 307.163 58.8317 300.429 63.4285 294.516C71.3115 284.366 76.3093 272.375 83.0871 261.491C90.7452 249.177 99.3325 237.647 108.409 226.351C115.969 216.945 120.771 205.375 127.921 195.587C133.828 187.502 139.951 179.867 146.367 172.271C151.032 166.75 154.181 160.124 158.387 154.368C161.712 149.827 165.771 145.745 169.644 141.722C172.862 138.374 174.524 133.343 177.713 130.485C173.664 130.671 169.331 129.232 164.783 129.81C162.123 130.142 159.727 131.2 157.076 131.474C154.025 131.797 151.521 130.955 148.743 130.612C139.207 129.438 129.016 129.604 119.382 129.604C112.947 129.604 103.372 130.563 99.352 124.446C95.479 118.543 98.1589 113.453 103.929 110.938C113.377 106.817 123.696 105.182 133.368 101.835C141.633 98.9766 150.65 98.1642 159.11 96.2751C164.499 95.0809 169.908 93.9259 175.238 93.2016C179.493 92.6241 183.581 93.3386 187.337 91.1949C193.078 87.9061 193.498 79.0967 194.085 73.3999C195.533 59.4615 197.655 43.7905 201.411 30.3414C202.653 25.8878 203.973 20.9153 205.039 16.2659C205.988 12.1059 206.154 7.43693 208.326 3.66846C213.783 -5.81635 220.629 12.703 222.537 16.9707C226.811 26.524 230.283 35.725 232.904 46.0026C236.043 58.2869 236.699 71.1976 241.589 82.8162C244.005 83.1784 246.401 79.1163 247.878 77.4033C251.262 73.5076 255.008 69.1714 259.272 66.1469C265.512 61.7226 272.73 58.7273 278.911 54.0681C283.811 50.3682 288.281 46.1299 293.132 42.381C301.269 36.0871 309.407 28.0608 318.757 23.7148C323.451 21.532 327.941 18.8305 332.743 16.9609C335.53 15.8842 340.958 12.6932 343.785 13.1141C344.518 17.0294 342.64 20.3868 340.586 23.6071C337.32 28.7264 335.276 34.3253 332.312 39.6109C329.828 44.045 326.806 48.5867 324.146 52.8642C320.957 57.9932 316.263 61.8302 312.918 66.8516C308.116 74.0459 302.325 80.5845 297.308 87.6321C294.041 92.213 287.801 101.336 292.701 106.083C295.078 108.383 298.286 108.344 301.25 109.039C306.179 110.194 311.059 111.506 315.764 113.502C323.657 116.85 330.435 122.126 338.366 125.16C345.712 127.969 352.47 132.041 359.776 134.958C364.5 136.838 375.483 140.596 366.691 145.813C358.984 150.385 348.655 149.053 340.146 150.845C332.694 152.42 325.3 155.553 317.808 156.698C311.324 157.687 304.986 158.519 298.257 158.519C291.978 158.519 284.603 157.804 278.667 159.429C273.053 160.966 275.889 178.584 275.889 183.704C275.889 195.508 275.889 207.313 275.889 219.127C275.889 228.377 274.021 236.776 274.021 245.967C274.021 250.567 274.441 255.422 274.021 260.003C273.737 263.018 273.649 268.059 271.478 270.496C267.135 275.361 264.827 269.282 263.067 265.553C260.025 259.093 257.961 252.055 255.731 245.262C252.083 234.172 250.773 226.792 246.919 215.819C243.565 206.266 243.917 202.938 240.67 191.495C239.545 187.531 240.826 170.069 235.3 171.958C235.417 174.473 228.923 194.852 228.385 197.339C227.388 201.92 224.952 208.165 224.385 212.873C223.104 223.61 221.422 225.03 219.29 235.699C216.336 250.489 215.925 251.928 211.397 266.307C206.389 282.242 199.122 295.182 196.423 309.855C193.401 326.289 188.784 341.97 184.745 358.15C180.804 373.919 178.026 389.962 174.075 405.721C170.456 420.178 165.448 434.42 159.365 447.947C157.624 451.814 151.56 468.111 148.91 457.765C145.232 443.435 147.765 428.332 145.858 413.767C144.753 405.319 144.459 396.49 144.459 387.945C144.459 382.875 145.584 376.826 145.222 372.216C139.325 375.886 135.814 386.663 132.41 392.595C124.634 406.132 115.099 418.455 106.991 431.767C96.8287 448.456 86.3538 465.067 75.5367 481.345C70.5487 488.842 63.536 495.205 57.4917 501.881C55.9268 503.603 49.599 512.697 47.6722 513C46.3127 506.51 50.1466 497.495 52.1418 491.407C56.7093 477.557 61.805 464.059 66.7539 450.385C70.5976 439.764 72.5928 428.674 76.0257 417.946C77.7079 412.7 84.026 402.833 82.8133 397.44C79.527 396.393 76.4853 400.141 74.3825 402.119C67.9568 408.178 61.8441 414.628 55.6335 420.902C50.3325 426.247 44.6109 430.534 38.4786 434.831C34.2828 437.768 28.8742 443.171 24.3165 444.805C28.6982 432.276 33.3928 419.845 39.1339 407.659C44.9142 395.384 54.2446 381.319 55.8193 367.527C52.8851 366.91 47.6233 372.46 45.7063 374.379C38.283 381.789 30.6445 388.905 22.7517 395.884C17.3235 400.69 9.15689 409.675 1 408.393C2.29102 402.05 9.06885 394.836 12.1106 388.905C15.2403 382.787 18.8198 376.982 21.7931 370.806C23.8274 366.578 26.3801 362.79 28.8839 358.845C30.7324 355.938 32.8842 345.993 36.3367 346.022" fill="#00475F"/>
<path d="M26.1063 358.121C34.3023 343.242 42.1659 327.493 51.7311 313.359C55.9269 307.163 58.8317 300.429 63.4285 294.516C71.3115 284.366 76.3093 272.375 83.0871 261.491C90.7452 249.177 99.3325 237.647 108.409 226.351C115.969 216.945 120.771 205.375 127.921 195.587C133.828 187.502 139.951 179.867 146.367 172.271C151.032 166.75 154.181 160.124 158.387 154.368C161.712 149.827 165.771 145.745 169.644 141.722C172.862 138.374 174.524 133.343 177.713 130.485C173.664 130.671 169.331 129.232 164.783 129.81C162.123 130.142 159.727 131.2 157.076 131.474C154.025 131.797 151.521 130.955 148.743 130.612C139.207 129.438 129.016 129.604 119.382 129.604C112.947 129.604 103.372 130.563 99.352 124.446C95.479 118.543 98.1589 113.453 103.929 110.938C113.377 106.817 123.696 105.182 133.368 101.835C141.633 98.9766 150.65 98.1642 159.11 96.2751C164.499 95.0809 169.908 93.9259 175.238 93.2016C179.493 92.6241 183.581 93.3386 187.337 91.1949C193.078 87.9061 193.498 79.0967 194.085 73.3999C195.533 59.4615 197.655 43.7905 201.411 30.3414C202.653 25.8878 203.973 20.9153 205.039 16.2659C205.988 12.1059 206.154 7.43693 208.326 3.66846C213.783 -5.81635 220.629 12.703 222.537 16.9707C226.811 26.524 230.283 35.725 232.904 46.0026C236.043 58.2869 236.699 71.1976 241.589 82.8162C244.005 83.1784 246.401 79.1163 247.878 77.4033C251.262 73.5076 255.008 69.1714 259.272 66.1469C265.512 61.7226 272.73 58.7273 278.911 54.0681C283.811 50.3682 288.281 46.1299 293.132 42.381C301.269 36.0871 309.407 28.0608 318.757 23.7148C323.451 21.532 327.941 18.8305 332.743 16.9609C335.53 15.8842 340.958 12.6932 343.785 13.1141C344.518 17.0294 342.64 20.3868 340.586 23.6071C337.32 28.7264 335.276 34.3253 332.312 39.6109C329.828 44.045 326.806 48.5867 324.146 52.8642C320.957 57.9932 316.263 61.8302 312.918 66.8516C308.116 74.0459 302.325 80.5845 297.308 87.6321C294.041 92.213 287.801 101.336 292.701 106.083C295.078 108.383 298.286 108.344 301.25 109.039C306.179 110.194 311.059 111.506 315.764 113.502C323.657 116.85 330.435 122.126 338.366 125.16C345.712 127.969 352.47 132.041 359.776 134.958C364.5 136.838 375.483 140.596 366.691 145.813C358.984 150.385 348.655 149.053 340.146 150.845C332.694 152.42 325.3 155.553 317.808 156.698C311.324 157.687 304.986 158.519 298.257 158.519C291.978 158.519 284.603 157.804 278.667 159.429C273.053 160.966 275.889 178.584 275.889 183.704C275.889 195.508 275.889 207.313 275.889 219.127C275.889 228.377 274.021 236.776 274.021 245.967C274.021 250.567 274.441 255.422 274.021 260.003C273.737 263.018 273.649 268.059 271.478 270.496C267.135 275.361 264.827 269.282 263.067 265.553C260.025 259.093 257.961 252.055 255.731 245.262C252.083 234.172 250.773 226.792 246.919 215.819C243.565 206.266 243.917 202.938 240.67 191.495C239.545 187.531 240.826 170.069 235.3 171.958C235.417 174.473 228.923 194.852 228.385 197.339C227.388 201.92 224.952 208.165 224.385 212.873C223.104 223.61 221.422 225.03 219.29 235.699C216.336 250.489 215.925 251.928 211.397 266.307C206.389 282.242 199.122 295.182 196.423 309.855C193.401 326.289 188.784 341.97 184.745 358.15C180.804 373.919 178.026 389.962 174.075 405.721C170.456 420.178 165.448 434.42 159.365 447.947C157.624 451.814 151.56 468.111 148.91 457.765C145.232 443.435 147.765 428.332 145.858 413.767C144.753 405.319 144.459 396.49 144.459 387.945C144.459 382.875 145.584 376.826 145.222 372.216C139.325 375.886 135.814 386.663 132.41 392.595C124.634 406.132 115.099 418.455 106.991 431.767C96.8287 448.456 86.3538 465.067 75.5367 481.345C70.5487 488.843 63.536 495.205 57.4917 501.881C55.9268 503.603 49.599 512.697 47.6722 513C46.3127 506.51 50.1466 497.495 52.1418 491.407C56.7093 477.557 61.805 464.059 66.7539 450.385C70.5976 439.764 72.5928 428.674 76.0257 417.946C77.7079 412.7 84.026 402.833 82.8133 397.44C79.527 396.393 76.4853 400.141 74.3825 402.119C67.9568 408.178 61.8441 414.628 55.6335 420.902C50.3325 426.247 44.6109 430.534 38.4786 434.831C34.2828 437.768 28.8742 443.171 24.3165 444.805C28.6982 432.276 33.3928 419.845 39.1339 407.659C44.9142 395.384 54.2446 381.319 55.8193 367.527C52.8851 366.91 47.6233 372.46 45.7063 374.379C38.283 381.789 30.6445 388.905 22.7517 395.884C17.3235 400.69 9.15688 409.675 1 408.393C2.29102 402.05 9.06885 394.836 12.1106 388.905C15.2403 382.787 18.8198 376.982 21.7931 370.806C23.8274 366.578 26.3801 362.79 28.8839 358.845C30.7324 355.938 32.8842 345.993 36.3367 346.022" stroke="#00475F" stroke-miterlimit="10"/>
</svg>
