<svg xmlns="http://www.w3.org/2000/svg" viewBox="1.2640478610992432 0.8352642059326172 253.32806396484375 384.929443359375" fill="#DBE508" style="box-shadow: none; border-radius: 0px; opacity: 1;" preserveAspectRatio="xMidYMid meet" fill-opacity="1" width="256" height="387">
<path d="M38.6388 192.775C32.333 195.603 26.2913 198.167 21.1269 202.719C18.8239 204.746 16.7831 207.405 14.9679 209.866C11.6737 214.353 8.60808 219.514 6.63302 224.693C1.86432 237.153 1.23492 250.106 1.28331 263.348C1.30357 269.397 1.06079 275.587 1.86517 281.59C2.7139 287.971 4.75322 294.243 5.682 300.653C7.89564 316.016 13.4254 332.106 24.8838 343.102C27.9892 346.082 31.4802 348.332 34.8099 351.002C38.4633 353.949 41.8225 357.069 46.046 359.225C55.135 363.88 64.0898 369.122 73.4859 373.128C82.4184 376.94 91.3065 381.32 100.83 383.474C105.303 384.49 109.829 385.37 114.418 385.711C119.236 386.074 123.939 384.51 128.634 383.631C139.331 381.618 149.691 376.501 158.238 369.876C167.079 363.017 176.283 356.897 183.103 347.812C186.282 343.584 190.082 339.386 192.452 334.67C194.691 330.234 196.703 325.702 198.648 321.143C201.549 314.289 203.752 307.069 206.347 300.09C207.943 295.791 207.571 292.556 207.64 288.086C207.684 284.508 208.207 281.164 207.632 277.605C206.748 272.101 206.713 266.774 205.345 261.293C204.61 258.327 204.294 255.238 202.998 252.426C201.644 249.478 200.037 246.564 198.266 243.849C196.196 240.678 195.009 235.628 191.48 233.677C191.957 231.442 193.161 229.322 193.838 227.128C195.351 222.222 196.538 217.284 198.319 212.446C202.053 202.301 205.358 192.091 209.068 181.941C213.675 169.312 221.838 158.503 227.052 146.148C229.845 139.517 232.715 133.05 235.217 126.285C238.116 118.436 240.382 110.443 242.341 102.324C243.229 98.6511 244.334 95.1095 244.941 91.3658C245.53 87.7659 246.02 84.1698 246.972 80.6577C248.852 73.6898 250.412 66.6674 251.879 59.6137C253.919 49.8658 257.561 37.5638 250.142 29.0789C246.884 25.3543 242.033 23.0796 237.637 20.9856C231.646 18.1051 225.145 17.3179 218.735 15.8614C213.781 14.7325 208.833 13.58 203.705 14.2331C198.513 14.8975 192.802 17.1738 188.201 19.6074C181.775 23.0128 177.011 29.2455 172.86 35.016C169.921 39.0975 167.121 43.0977 164.821 47.5947C162.537 52.0707 160.56 56.549 158.827 61.2746C158.152 63.0999 157.309 64.964 156.774 66.8305C156.495 67.8167 156.574 68.9143 156.135 69.8426C156.722 67.7288 155.564 64.7238 155.238 62.6287C154.558 58.212 154.406 53.6838 153.776 49.2651C152.471 40.2339 150.447 30.9918 144.987 23.4306C143.679 21.6227 142.401 19.7843 141.036 18.0137C139.311 15.7873 136.978 14.2333 134.91 12.3534C130.899 8.70534 126.924 6.7726 121.839 4.91606C111.306 1.05388 98.8481 -1.12031 88.1515 3.25158C72.0533 9.82905 62.4241 24.4358 55.0782 39.5913C50.2074 49.6472 45.1203 59.2649 41.3294 69.8035C39.61 74.5811 38.5054 79.5358 37.0968 84.4149C35.6833 89.3177 33.7851 94.0089 33.5266 99.1519C33.2914 103.71 33.34 108.204 33.4991 112.759C33.6412 116.744 34.2065 120.646 34.3889 124.615C34.6818 130.831 36.099 136.961 36.5146 143.178C37.0691 151.623 38.5394 160.099 38.0412 168.522C37.738 173.643 37.8667 178.756 38.2887 183.82C38.4338 185.545 38.6348 187.061 38.6547 188.798C38.6713 189.723 38.7228 190.716 38.6711 191.614C38.6253 192.367 38.304 193.32 38.4187 194.068C38.2344 193.477 38.244 192.84 38.3974 192.221" fill="" style="undefined" fill-opacity=""/>
<path d="M38.6388 192.775C32.333 195.603 26.2913 198.167 21.1269 202.719C18.8239 204.746 16.7831 207.405 14.9679 209.866C11.6737 214.353 8.60808 219.514 6.63302 224.693C1.86432 237.153 1.23492 250.106 1.28331 263.348C1.30358 269.397 1.06079 275.587 1.86517 281.59C2.7139 287.971 4.75322 294.243 5.682 300.653C7.89564 316.016 13.4254 332.106 24.8838 343.102C27.9892 346.082 31.4802 348.332 34.8099 351.002C38.4633 353.949 41.8225 357.069 46.046 359.225C55.1351 363.88 64.0898 369.122 73.4859 373.128C82.4184 376.94 91.3065 381.32 100.83 383.474C105.303 384.49 109.829 385.37 114.418 385.711C119.236 386.074 123.939 384.51 128.634 383.631C139.331 381.618 149.691 376.501 158.238 369.876C167.079 363.017 176.283 356.897 183.103 347.812C186.282 343.584 190.082 339.386 192.452 334.67C194.691 330.234 196.703 325.702 198.648 321.143C201.549 314.289 203.752 307.069 206.347 300.09C207.943 295.791 207.571 292.556 207.64 288.086C207.684 284.508 208.207 281.164 207.632 277.605C206.748 272.101 206.713 266.774 205.345 261.293C204.61 258.327 204.294 255.238 202.998 252.426C201.644 249.478 200.037 246.564 198.266 243.849C196.196 240.678 195.009 235.628 191.48 233.677C191.957 231.442 193.161 229.322 193.838 227.128C195.351 222.222 196.538 217.284 198.319 212.446C202.053 202.301 205.358 192.091 209.068 181.941C213.675 169.312 221.838 158.503 227.052 146.148C229.845 139.517 232.715 133.05 235.217 126.285C238.116 118.436 240.382 110.443 242.341 102.324C243.229 98.6511 244.334 95.1095 244.941 91.3658C245.53 87.7659 246.02 84.1698 246.972 80.6577C248.852 73.6898 250.412 66.6674 251.879 59.6137C253.919 49.8658 257.561 37.5638 250.142 29.0789C246.884 25.3543 242.033 23.0796 237.637 20.9856C231.646 18.1051 225.145 17.3179 218.735 15.8614C213.781 14.7325 208.833 13.58 203.705 14.2331C198.513 14.8975 192.802 17.1738 188.201 19.6074C181.775 23.0128 177.011 29.2455 172.86 35.016C169.921 39.0976 167.121 43.0977 164.821 47.5947C162.537 52.0707 160.56 56.549 158.827 61.2746C158.152 63.0999 157.309 64.964 156.774 66.8305C156.495 67.8167 156.574 68.9143 156.135 69.8426C156.722 67.7288 155.564 64.7238 155.238 62.6287C154.558 58.212 154.406 53.6838 153.776 49.2651C152.471 40.2339 150.447 30.9918 144.987 23.4306C143.679 21.6227 142.401 19.7843 141.036 18.0137C139.311 15.7873 136.978 14.2333 134.91 12.3534C130.899 8.70534 126.924 6.7726 121.839 4.91606C111.306 1.05388 98.8481 -1.12031 88.1515 3.25158C72.0533 9.82905 62.4241 24.4358 55.0782 39.5913C50.2074 49.6472 45.1203 59.2649 41.3294 69.8035C39.6099 74.5811 38.5054 79.5358 37.0968 84.4149C35.6833 89.3177 33.7851 94.0089 33.5266 99.1519C33.2914 103.71 33.34 108.204 33.4991 112.759C33.6412 116.744 34.2065 120.646 34.3889 124.615C34.6818 130.831 36.099 136.961 36.5146 143.178C37.0691 151.623 38.5394 160.099 38.0412 168.522C37.738 173.643 37.8667 178.756 38.2887 183.82C38.4338 185.545 38.6348 187.061 38.6547 188.798C38.6713 189.723 38.7228 190.716 38.6711 191.614C38.6253 192.367 38.304 193.32 38.4187 194.068C38.2344 193.477 38.244 192.84 38.3974 192.221" stroke="#D6E2D5" stroke-miterlimit="10"/>
</svg>