<svg width="282" height="193" viewBox="0 0 282 193" fill="none" xmlns="http://www.w3.org/2000/svg">
<path d="M0 66.8515C19.1722 50.5844 38.8475 35.1785 55.291 16.6053C59.3876 11.9724 65.1854 2.4288 71.2524 0.553416C82.6281 -2.96118 79.4032 11.1875 78.5173 16.9942C76.4548 30.49 80.9837 47.5976 94.9606 53.3071C102.523 56.398 109.746 59.871 117.946 60.5169C122.064 60.8434 125.905 61.8089 130.016 62.2812C134.482 62.7882 139.195 63.1286 143.745 63.6495C148.501 64.1913 152.527 65.2749 157.474 65.2749C161.294 65.2749 165.419 64.8581 169.183 65.3443C173.492 65.9 177.589 67.2058 182.033 67.7198C185.91 68.1712 190.028 69.1923 193.812 69.6299C202.304 70.6162 211.822 71.6373 220.462 71.6095C227.826 71.5886 237.671 70.6023 243.703 74.9712C256.34 84.1328 264.37 96.6423 275.533 107.005C281.26 112.319 282.777 119.105 281.657 126.829C281.005 131.309 278.227 131.33 273.761 130.962C269.601 130.614 268.658 128.274 265.717 125.822C263.201 123.724 260.493 122.064 258.417 119.425C256.205 116.612 254.426 111.75 250.677 110.451C245.212 108.561 237.139 113.785 232.795 116.125C223.836 120.953 228.287 128.218 230.193 135.713C232.15 143.395 234.382 151.258 235.871 159.058C237.281 166.49 238.167 174.471 237.239 182.424C236.877 185.556 235.892 191.55 232.568 192.752C229.52 193.856 225.423 191.057 223.864 188.578C221.483 184.785 221.88 179.624 220.249 175.457C218.711 171.519 217.677 167.844 216.819 163.809C215.189 156.12 211.227 149.118 207.229 142.443C198.866 128.482 178.326 126.009 163.924 122.884C155.943 121.147 147.7 120.008 139.294 119.89C131.079 119.772 121.617 117.563 113.452 119.487C105.656 121.328 99.1779 129.878 94.6559 135.678C89.6733 142.061 86.6327 149.438 82.5856 156.3C78.9425 162.475 75.1648 169.15 70.65 174.498C67.4676 178.27 61.2658 185.792 55.7162 184.806C47.7638 183.389 50.039 169.525 52.2858 164.809C55.298 158.474 58.4167 151.598 59.7633 144.833C60.5359 140.936 60.3303 136.762 61.3438 132.927C62.2156 129.621 64.1506 126.28 65.0082 122.668C66.525 116.257 68.0062 106.318 64.3986 100.094C60.9186 94.1001 57.8 87.6544 52.4843 82.8756C50.0036 80.646 46.7929 78.4233 43.171 79.5069C40.2368 80.3821 39.1594 83.6397 37.5647 85.8554C34.4036 90.2591 32.7239 101.095 26.6426 100.9C17.5562 100.608 13.7926 92.7248 10.2913 85.8693C8.70368 82.7506 -2.3885 67.5392 4.03293 65.2957" 
fill="#347479ff"/>
</svg>
