<svg xmlns="http://www.w3.org/2000/svg" viewBox="2.3283064365386963e-10 0.0000016689300537109375 227.000244140625 349.08538818359375" fill="#B596E5" style="box-shadow: none; border-radius: 0px; opacity: 1;" preserveAspectRatio="xMidYMid meet" fill-opacity="1" width="227" height="350">
<path d="M218.59 51.3062C207.611 56.2514 196.757 60.6023 185.33 64.3365C178.22 66.6598 156.802 72.1861 151.834 73.543C139.768 76.8286 127.747 79.7105 117.027 86.5845C103.537 95.2303 97.6049 109.573 92.4578 123.971C87.8602 136.811 87.4117 150.458 83.8009 163.612C76.1531 191.534 71.5219 221.418 69.6492 250.507C68.8194 263.346 66.7559 276.478 66.4532 289.373C66.184 300.475 64.3675 312.092 64.1208 323.205C63.8853 333.567 64.2554 344.478 75.3681 347.438C87.0865 350.567 99.3431 348.436 110.826 347.561C121.131 346.776 127.815 345.666 137.044 341.035C141.383 338.859 145.611 336.908 150.04 335.215C155.524 333.129 156.959 332.311 157.834 326.042C161.265 301.753 161.232 277.24 161.882 252.839C162.555 227.72 162.431 202.646 163.003 177.853C163.261 166.875 166.222 155.291 167.825 144.391C169.474 133.189 171.066 122.39 176.46 112.903C181.652 103.786 188.795 93.8286 194.918 85.2613C198.259 80.5852 202.666 78.6452 206.49 74.5522C210.078 70.7059 212.557 66.2541 215.999 62.5199C218.803 59.4698 216.908 61.3985 220.272 58.0344" fill="" style="undefined" fill-opacity=""/>
<path d="M90.7533 129.242C80.1788 124.296 68.0904 118.331 58.2784 112.062C54.3088 108.496 52.4809 104.526 50.0811 101.342C45.9657 95.8694 42.7811 89.1524 40.8747 82.5139C36.7705 68.1828 40.729 58.225 51.0007 47.8075C68.7408 29.8094 90.5964 40.44 102.707 59.0099C108.875 68.4631 114.179 78.5891 112.62 89.9935" fill="" style="undefined" fill-opacity=""/>
<path d="M91.8747 46.8207C92.7606 37.289 93.5455 29.0133 94.4987 19.4928C95.4519 9.9724 100.868 7.68482 103.088 5.89062C112.059 0.709875 115.424 2.00072 120.638 0.709875C132.098 -2.12719 140.89 3.80489 145.431 13.7739C154.324 33.2857 155.378 53.1564 152.429 73.7336" fill="" style="undefined" fill-opacity=""/>
<path d="M152.429 73.7336L119.909 59.1558L91.8747 46.8207L94.6782 75.4157L115.424 97.2824L152.429 73.7336Z" fill="" style="undefined" fill-opacity=""/>
<path d="M217.75 56.6805C218.764 57.6784 219.778 57.6784 219.778 57.6784C219.778 57.6784 223.631 58.9523 225.608 56.6805C227.22 54.8226 227.686 51.6166 225.628 49.918C221.735 46.6907 214.429 53.4118 217.75 56.6805Z" fill="" style="undefined" fill-opacity=""/>
<path d="M67.2495 342.425C62.7752 342.941 57.8298 343.872 53.2659 343.569C52.1333 343.491 51.0455 343.188 49.913 343.166C47.0983 343.098 44.194 343.39 41.3681 343.625C36.6247 344.029 30.4124 342.975 25.7699 341.809C19.5687 340.25 15.2738 336.964 10.4071 332.905C5.15904 328.532 3.48819 321.647 1.70521 315.3C0.886605 312.384 0.0343406 309.087 0.000699417 306.037C-0.0329417 302.258 1.15571 298.143 1.68276 294.397C2.17616 290.865 3.51063 287.602 4.66564 284.226C6.12343 279.965 7.42426 275.738 8.7699 271.443C10.5977 265.645 13.1769 260.106 14.7917 254.274C15.3187 252.379 15.4757 250.338 15.756 248.399C16.1709 245.618 17.1241 242.399 16.7316 239.596C16.227 236.019 13.8945 233.103 11.9097 230.232C9.89119 227.294 8.1868 223.695 7.09907 220.275C5.51794 215.284 4.17232 208.354 5.58525 203.207C8.13076 202.848 9.84636 206.852 11.2369 208.534C12.8292 210.462 14.8702 211.404 15.9467 213.793C18.2007 218.85 19.8827 224.715 21.2957 230.232C22.9441 236.691 24.4691 242.22 23.4374 249.049C22.3497 256.248 19.849 263.021 17.2474 269.727C16.0139 272.889 14.971 275.48 14.4664 278.922C14.0179 281.961 13.4236 284.529 12.3022 287.389C10.0034 293.309 8.69134 299.141 10.1043 305.398C10.878 308.829 12.605 311.891 13.1433 315.434C13.6367 318.675 13.9618 321.052 15.7111 323.867C17.3147 326.457 19.479 327.724 22.0581 329.014C24.8279 330.393 27.3174 332.625 30.2554 333.668C35.9183 335.697 42.8147 335.742 48.6907 335.002C50.3503 334.8 63.4816 331.862 63.0106 330.831" fill="" style="undefined" fill-opacity=""/>
</svg>