<svg width="286" height="398" viewBox="0 0 286 398" fill="none" xmlns="http://www.w3.org/2000/svg">
<path d="M164.881 43.6853C162.041 65.0997 163.075 67.0736 149.217 81.4399C143.872 86.989 137.231 91.2532 130.331 94.782C115.179 102.519 96.3293 107.128 79.7617 110.321C69.4338 112.314 59.9998 109.521 50.9477 115.349C42.2681 120.936 34.7712 127.518 28.3453 136.065C11.3307 158.709 12.4855 187.087 6.05034 213.241C0.751316 234.776 3.14469 257.792 0.42533 279.7C-0.813282 289.69 1.068 298.787 0.863121 308.395C0.676863 317.38 0.732695 325.75 0.816511 334.763C0.891014 342.77 0.48127 350.6 2.8188 358.84C5.0632 366.763 7.0561 377.378 12.1875 383.979C17.561 390.887 28.6433 391.669 36.8759 393.671C47.1015 396.157 58.4259 394.77 68.8656 395.338C79.4543 395.915 89.1118 394.984 99.6167 393.923C109.954 392.88 120.198 396.436 130.563 395.971C134.205 395.813 137.744 396.604 141.534 397.414C146.535 398.485 150.4 397.88 155.401 397.246C165.971 395.924 174.604 394.146 183.777 388.979C197.858 381.037 210.244 368.756 219.678 355.889C226.942 345.973 240.185 324.54 223.981 315.713C215.19 310.928 209.397 318.106 203.232 323.646C199.088 327.37 190.678 338.161 184.802 339.027C179.326 339.837 181.728 323.767 181.672 319.065C181.579 311.421 181.645 303.498 183.554 295.677C187.744 278.48 193.472 260.492 194.971 243.137C195.707 234.683 193.965 225.652 194.999 217.738C196.061 209.61 197.532 201.156 198.324 193.409C199.209 184.75 197.923 175.85 198.641 167.377C199.423 158.113 203.651 154.454 210.999 148.914C214.519 146.26 217.555 142.843 221.178 140.367C224.763 137.909 228.796 137.62 232.837 136.289C238.593 134.389 244.153 130.647 248.632 126.652C261.26 115.396 272.631 100.601 278.443 84.7545C281.59 76.1608 285.027 66.0308 285.884 56.6644C286.498 49.9142 284.524 41.6836 283.63 34.5144C283.108 30.3339 283.146 10.0647 277.344 10.5582C275.053 14.72 270.927 17.3736 268.254 21.3771C265.628 25.3062 263.43 28.5742 260.05 31.9726C256.622 35.4082 253.484 39.0021 250.299 42.5122C245.857 47.4095 243.026 45.9571 236.767 45.2309C226.132 43.9926 217.397 45.054 206.659 42.4004C200.913 40.9759 196.685 44.2719 194.757 38.9276C193.118 34.3747 192.811 30.0825 189.803 25.7903C183.004 16.098 174.176 7.67194 165.571 0C159.145 14.3197 164.388 29.468 164.881 43.6853Z" fill="#FFBDBA"/>
</svg>
