<svg width="419" height="375" viewBox="0 0 419 375" fill="none" xmlns="http://www.w3.org/2000/svg">
<path d="M257.762 108.078C253.448 117.122 248.689 125.906 243.472 134.443C242.646 134.562 239.219 137.714 237.366 138.735C234.26 140.445 230.896 141.489 227.65 142.729C220.807 145.347 213.18 147.363 205.858 147.659C194.499 148.11 183.295 148.855 171.886 150.744C160.626 152.614 149.729 159.688 140.111 165.614C124.094 175.475 114.401 190.538 99.2948 201.169C85.0405 211.195 72.8909 228.03 68.0084 244.73C65.1423 254.545 63.5579 264.627 61.1301 274.482C59.3382 281.777 57.3066 287.925 58.3743 295.46C60.8972 313.262 83.282 317.364 97.8603 321.25C113.81 325.503 129.597 333.13 145.752 334.926C160.993 336.628 176.028 336.234 191.556 335.523C208.311 334.753 225.372 333.261 240.821 326.357C250.918 321.84 257.562 314.89 264.967 306.801C272.565 298.501 278.71 292.655 283.833 282.287C290.524 268.766 296.781 252.33 299.459 237.617C301.753 225.022 299.19 210.549 297.302 197.426C293.683 172.31 284.758 148.357 294.877 124.188C299.093 114.125 308.224 107.824 316.065 100.884C325.074 92.914 332.151 80.0624 334.654 68.1982C337.369 55.3842 335.583 40.7986 327.453 29.765C319.007 18.2972 302.458 20.3616 292.254 28.3292C280.475 37.5335 270.603 45.7005 264.444 59.8901C259.149 72.083 257.865 87.097 256.501 99.722C256.173 102.77 256.649 106.115 256.454 109.209C256.294 111.823 254.653 115.245 255.583 118.08" fill="#A8D5E2"/>
<path d="M318.234 24.6067C321.434 20.0897 324.453 15.4556 327.264 10.696C326.859 9.70817 331.012 4.49803 332.191 3.21747C333.214 2.10254 334.857 -0.48427 336.61 0.707344C338.083 1.70116 337.277 5.12168 336.925 6.40308C335.803 10.5062 333.125 13.9386 331.309 17.8048C330.387 19.7762 329.797 21.8023 328.765 23.7211C327.891 25.3372 326.411 26.6391 326.648 28.666" fill="#A8D5E2"/>
</svg>
